<svg width="28" height="27" viewBox="0 0 28 27" fill="none" xmlns="http://www.w3.org/2000/svg">
<path d="M21.4134 26C21.2001 26.0009 20.9898 25.9506 20.8 25.8534L14 22.2934L7.20002 25.8534C6.97921 25.9695 6.73026 26.0213 6.48145 26.003C6.23265 25.9846 5.99399 25.8968 5.79259 25.7496C5.59119 25.6024 5.43514 25.4016 5.34217 25.1701C5.2492 24.9386 5.22305 24.6857 5.26669 24.44L6.60002 16.9334L1.10669 11.6C0.935296 11.429 0.813715 11.2145 0.754989 10.9796C0.696264 10.7447 0.702612 10.4983 0.773352 10.2667C0.850632 10.0297 0.992788 9.81916 1.18369 9.6589C1.37458 9.49864 1.60658 9.3951 1.85335 9.36002L9.45335 8.25336L12.8 1.41336C12.9092 1.18793 13.0797 0.997812 13.2919 0.864787C13.5041 0.731763 13.7495 0.661209 14 0.661209C14.2505 0.661209 14.4959 0.731763 14.7081 0.864787C14.9204 0.997812 15.0908 1.18793 15.2 1.41336L18.5867 8.24002L26.1867 9.34669C26.4335 9.38176 26.6655 9.48531 26.8564 9.64557C27.0473 9.80583 27.1894 10.0164 27.2667 10.2534C27.3374 10.4849 27.3438 10.7314 27.285 10.9663C27.2263 11.2012 27.1047 11.4157 26.9334 11.5867L21.44 16.92L22.7734 24.4267C22.821 24.6767 22.796 24.935 22.7015 25.1713C22.607 25.4076 22.4469 25.6118 22.24 25.76C21.9986 25.9292 21.7079 26.0136 21.4134 26Z" fill="#FCC419"/>
</svg>
