<svg width="30" height="29" viewBox="0 0 30 29" fill="none" xmlns="http://www.w3.org/2000/svg">
<path d="M22.4134 27C22.2001 27.0009 21.9898 26.9506 21.8 26.8534L15 23.2934L8.20002 26.8534C7.97921 26.9695 7.73026 27.0213 7.48146 27.003C7.23265 26.9846 6.99399 26.8968 6.79259 26.7496C6.59119 26.6024 6.43514 26.4016 6.34217 26.1701C6.2492 25.9386 6.22305 25.6857 6.26669 25.44L7.60002 17.9334L2.10669 12.6C1.9353 12.429 1.81371 12.2145 1.75499 11.9796C1.69626 11.7447 1.70261 11.4983 1.77335 11.2667C1.85063 11.0297 1.99279 10.8192 2.18369 10.6589C2.37458 10.4986 2.60658 10.3951 2.85335 10.36L10.4534 9.25336L13.8 2.41336C13.9092 2.18793 14.0797 1.99781 14.2919 1.86479C14.5041 1.73176 14.7495 1.66121 15 1.66121C15.2505 1.66121 15.4959 1.73176 15.7081 1.86479C15.9204 1.99781 16.0908 2.18793 16.2 2.41336L19.5867 9.24002L27.1867 10.3467C27.4335 10.3818 27.6655 10.4853 27.8564 10.6456C28.0473 10.8058 28.1894 11.0164 28.2667 11.2534C28.3374 11.4849 28.3438 11.7314 28.2851 11.9663C28.2263 12.2012 28.1047 12.4157 27.9334 12.5867L22.44 17.92L23.7734 25.4267C23.821 25.6767 23.796 25.935 23.7015 26.1713C23.607 26.4076 23.4469 26.6118 23.24 26.76C22.9986 26.9292 22.7079 27.0136 22.4134 27V27Z" stroke="#434670" stroke-width="2" stroke-linecap="round" stroke-linejoin="round"/>
</svg>
